<svg width="32" height="32" viewBox="0 0 32 32" fill="none" xmlns="http://www.w3.org/2000/svg">
<style>
  .icon { fill: #222; }
  @media (prefers-color-scheme: dark) { .icon { fill: white; } }
</style>
<defs>
  <path id="comma" d="M13.125 18.8843C13.125 18.1109 13.3893 17.4548 13.918 16.9158C14.4696 16.3533 15.1362 16.0721 15.9176 16.0721C16.6531 16.0721 17.2967 16.3533 17.8484 16.9158C18.4 17.4548 18.7218 18.0641 18.8137 18.7437C18.9976 20.0092 18.7677 21.2629 18.1242 22.505C17.5036 23.747 16.6072 24.6961 15.435 25.3523C14.7914 25.7273 14.2627 25.7155 13.849 25.3172C13.4583 24.9422 13.5732 24.4969 14.1938 23.9814C14.5386 23.7236 14.8259 23.3955 15.0557 22.9971C15.2856 22.5987 15.435 22.1886 15.5039 21.7668C15.5269 21.5793 15.4465 21.4856 15.2626 21.4856C14.8029 21.4621 14.3317 21.2043 13.849 20.7122C13.3663 20.2201 13.125 19.6108 13.125 18.8843Z"/>
  <!-- Mask to subtract rotated comma tail from the tittle circle -->
  <mask id="bite">
    <rect width="32" height="32" fill="white"/>
    <g transform="rotate(180, 15.97, 18.5)"><use href="#comma" fill="black"/></g>
  </mask>
</defs>
<!-- Tittle: circle with bite subtracted -->
<circle cx="16" cy="9.25" r="3.2" class="icon" mask="url(#bite)"/>
<!-- Comma -->
<use href="#comma" class="icon"/>
</svg>
