<svg width="64" height="64" viewBox="12.3 7 7.4 7.4" fill="none" xmlns="http://www.w3.org/2000/svg">
<!-- Tittle: bitten circle. See scratch/branding.md -->
<path fill="#222" d="M12.8,10.75c0,-1.76731 1.43269,-3.2 3.2,-3.2c1.76731,0 3.2,1.43269 3.2,3.2c0,1.61101 -1.19047,2.94396 -2.7397,3.16714c-0.02561,-0.04541 -0.03368,-0.10672 -0.0242,-0.18394c0.0689,-0.4218 0.2183,-0.8319 0.4482,-1.2303c0.2298,-0.3984 0.5171,-0.7265 0.8619,-0.9843c0.6206,-0.5155 0.7355,-0.9608 0.3448,-1.3358c-0.4137,-0.3983 -0.9424,-0.4101 -1.586,-0.0351c-1.1722,0.6562 -2.0686,1.6053 -2.6892,2.8473c-0.01089,0.02102 -0.02166,0.04203 -0.03231,0.06306c-0.6062,-0.5823 -0.98349,-1.40112 -0.98349,-2.30806z"/>
</svg>
