<svg xmlns="http://www.w3.org/2000/svg" viewBox="0 0 156 96" fill="none">
  <style>
    text { font-family: system-ui, -apple-system, sans-serif; font-weight: 600; font-size: 72px; fill: #222; }
  </style>
  <text x="0" y="74">tl</text>
  <g transform="translate(17,20) scale(2.6)">
    <path fill="#222" d="M12.8,10.75c0,-1.76731 1.43269,-3.2 3.2,-3.2c1.76731,0 3.2,1.43269 3.2,3.2c0,1.61101 -1.19047,2.94396 -2.7397,3.16714c-0.02561,-0.04541 -0.03368,-0.10672 -0.0242,-0.18394c0.0689,-0.4218 0.2183,-0.8319 0.4482,-1.2303c0.2298,-0.3984 0.5171,-0.7265 0.8619,-0.9843c0.6206,-0.5155 0.7355,-0.9608 0.3448,-1.3358c-0.4137,-0.3983 -0.9424,-0.4101 -1.586,-0.0351c-1.1722,0.6562 -2.0686,1.6053 -2.6892,2.8473c-0.01089,0.02102 -0.02166,0.04203 -0.03231,0.06306c-0.6062,-0.5823 -0.98349,-1.40112 -0.98349,-2.30806z"/>
    <path fill="#222" d="M13.125,17.3843c0,-0.7734 0.2643,-1.4295 0.793,-1.9685c0.5516,-0.5625 1.2182,-0.8437 1.9996,-0.8437c0.7355,0 1.3791,0.2812 1.9308,0.8437c0.5516,0.539 0.8734,1.1483 0.9653,1.8279c0.1839,1.2655 -0.046,2.5192 -0.6895,3.7613c-0.6206,1.242 -1.517,2.1911 -2.6892,2.8473c-0.6436,0.375 -1.1723,0.3632 -1.586,-0.0351c-0.3907,-0.375 -0.2758,-0.8203 0.3448,-1.3358c0.3448,-0.2578 0.6321,-0.5859 0.8619,-0.9843c0.2299,-0.3984 0.3793,-0.8085 0.4482,-1.2303c0.023,-0.1875 -0.0574,-0.2812 -0.2413,-0.2812c-0.4597,-0.0235 -0.9309,-0.2813 -1.4136,-0.7734c-0.4827,-0.4921 -0.724,-1.1014 -0.724,-1.8279z"/>
  </g>
  <text x="74" y="74">da</text>
</svg>
